# xmcd CD database file
#
# Track frame offsets:
#	150
#	19527
#	33677
#	63490
#	81282
#	95982
#	111037
#	125690
#	151705
#
# Disc length: 2272 seconds
#
# Revision: 2
# Processed by: cddbd v1.5PL3 Copyright (c) Steve Scherf et al.
# Submitted via: CDex 1.51
#
DISCID=7208de09
DTITLE=Janet Jackson - Dream Street
DYEAR=1984
DGENRE=Pop
TTITLE0=Don't Stand Another Chance
TTITLE1=Two To The Power Of Love (Duet With Cliff Richard)
TTITLE2=Pretty Boy
TTITLE3=Dream Street
TTITLE4=Communication
TTITLE5=Fast Girls
TTITLE6=Hold Back The Tears
TTITLE7=All My Love To You
TTITLE8=If It Takes All Night
EXTD=YEAR: 1984
EXTT0=
EXTT1=
EXTT2=
EXTT3=
EXTT4=
EXTT5=
EXTT6=
EXTT7=
EXTT8=
PLAYORDER=
